<?xml version="1.0" encoding="UTF-8"?>
<svg width="20px" height="16px" viewBox="0 0 20 16" version="1.1" xmlns="http://www.w3.org/2000/svg" xmlns:xlink="http://www.w3.org/1999/xlink">
    <title>形状</title>
    <g id="页面-1" stroke="none" stroke-width="1" fill="none" fill-rule="evenodd">
        <g id="首页" transform="translate(-126.000000, -44.000000)" fill="#FFFFFF" fill-rule="nonzero">
            <g id="更多" transform="translate(126.000000, 44.000000)">
                <path d="M1.26975478,2.26667485 L18.2858197,2.26667485 C18.8243391,2.26667485 19.2594011,1.84198268 19.2594011,1.3185253 C19.2594011,0.795314279 18.8245854,0.370375764 18.2858197,0.370375764 L1.26975478,0.370375764 C0.732222727,0.370375764 0.296173435,0.795067924 0.296173435,1.3185253 C0.296173435,1.84198268 0.732222727,2.26667485 1.26975478,2.26667485 L1.26975478,2.26667485 Z M18.2855715,7.007413 L1.26975478,7.007413 C0.730989045,7.007413 0.296173435,7.43210516 0.296173435,7.95556254 C0.296173435,8.47901992 0.730989045,8.90371208 1.26975478,8.90371208 L18.2858197,8.90371208 C18.8243391,8.90371208 19.2594011,8.47901992 19.2594011,7.95556254 C19.2591541,7.43210516 18.8216235,7.007413 18.2855734,7.007413 L18.2855715,7.007413 Z M18.2855715,13.7227298 L1.26975478,13.7227298 C0.732470991,13.7227298 0.296173435,14.147422 0.296173435,14.6708794 C0.296173435,15.1943368 0.732222727,15.6190289 1.26975478,15.6190289 L18.2858197,15.6190289 C18.8243391,15.6190289 19.2594011,15.1943368 19.2594011,14.6708794 C19.2591541,14.1476684 18.8243391,13.7227298 18.2855734,13.7227298 L18.2855715,13.7227298 Z" id="形状"></path>
            </g>
        </g>
    </g>
</svg>